<?xml version="1.0" encoding="UTF-8" standalone="no"?>
<svg
   xmlns:dc="http://purl.org/dc/elements/1.1/"
   xmlns:cc="http://creativecommons.org/ns#"
   xmlns:rdf="http://www.w3.org/1999/02/22-rdf-syntax-ns#"
   xmlns:svg="http://www.w3.org/2000/svg"
   xmlns="http://www.w3.org/2000/svg"
   xmlns:sodipodi="http://sodipodi.sourceforge.net/DTD/sodipodi-0.dtd"
   xmlns:inkscape="http://www.inkscape.org/namespaces/inkscape"
   version="1.1"
   width="76"
   height="76"
   viewBox="0 0 76.00 76.00"
   enable-background="new 0 0 76.00 76.00"
   xml:space="preserve"
   id="svg2"
   inkscape:version="0.91 r13725"
   sodipodi:docname="appbar.arrow.collapsed.svg"
   inkscape:export-filename="/Users/amake/Downloads/WindowsIcons-master/WindowsPhone/svg/appbar.arrow.collapsed@2x.png"
   inkscape:export-xdpi="66.669998"
   inkscape:export-ydpi="66.669998"><metadata
     id="metadata10"><rdf:RDF><cc:Work
         rdf:about=""><dc:format>image/svg+xml</dc:format><dc:type
           rdf:resource="http://purl.org/dc/dcmitype/StillImage" /></cc:Work></rdf:RDF></metadata><defs
     id="defs8" /><sodipodi:namedview
     pagecolor="#ffffff"
     bordercolor="#666666"
     borderopacity="1"
     objecttolerance="10"
     gridtolerance="10"
     guidetolerance="10"
     inkscape:pageopacity="0"
     inkscape:pageshadow="2"
     inkscape:window-width="964"
     inkscape:window-height="709"
     id="namedview6"
     showgrid="false"
     inkscape:zoom="4"
     inkscape:cx="37.99995"
     inkscape:cy="37.99995"
     inkscape:window-x="1027"
     inkscape:window-y="425"
     inkscape:window-maximized="0"
     inkscape:current-layer="layer3" /><g
     inkscape:groupmode="layer"
     id="layer1"
     inkscape:label="active"
     style="display:none"><path
       style="fill:#000000;fill-opacity:1;stroke-width:0.2;stroke-linejoin:round"
       d="M 54.2499,34 42,34 l 0,-12.2499 3.9999,-4 0,9 8,-8 3.25,3.25 -8,8 9,0 -4,3.9999 z M 34,21.7501 34,34 l -12.25,0 -4,-3.9999 9,0 -8,-8 3.25,-3.25 8,8 0,-9 4,4 z M 21.75,42 34,42 l 0,12.25 -4,4 0,-9 -8,8 -3.25,-3.25 8,-8 -9,0 4,-4 z M 42,54.25 42,42 l 12.2499,0 4,4 -9,1e-4 8,7.9999 -3.25,3.25 -8,-8 0,9 -3.9999,-4 z"
       id="path4"
       inkscape:connector-curvature="0" /></g><g
     inkscape:groupmode="layer"
     id="layer2"
     inkscape:label="inactive"
     style="display:none"><path
       id="path4136"
       d="M 54.2499,34 42,34 l 0,-12.2499 3.9999,-4 0,9 8,-8 3.25,3.25 -8,8 9,0 -4,3.9999 z M 34,21.7501 34,34 l -12.25,0 -4,-3.9999 9,0 -8,-8 3.25,-3.25 8,8 0,-9 4,4 z M 21.75,42 34,42 l 0,12.25 -4,4 0,-9 -8,8 -3.25,-3.25 8,-8 -9,0 4,-4 z M 42,54.25 42,42 l 12.2499,0 4,4 -9,1e-4 8,7.9999 -3.25,3.25 -8,-8 0,9 -3.9999,-4 z"
       style="fill:#9b9b9b;fill-opacity:1;stroke-width:0.2;stroke-linejoin:round"
       inkscape:connector-curvature="0" /></g><g
     inkscape:groupmode="layer"
     id="layer3"
     inkscape:label="pressed"><path
       style="fill:#ffffff;fill-opacity:1"
       fill="#000000"
       fill-opacity="1"
       stroke-width="0.2"
       stroke-linejoin="round"
       d="M 54.2499,34L 42,34L 42,21.7501L 45.9999,17.7501L 45.9999,26.7501L 53.9999,18.7501L 57.2499,22.0001L 49.2499,30.0001L 58.2499,30.0001L 54.2499,34 Z M 34,21.7501L 34,34L 21.75,34L 17.75,30.0001L 26.75,30.0001L 18.75,22.0001L 22,18.7501L 30,26.7501L 30,17.7501L 34,21.7501 Z M 21.75,42L 34,42L 34,54.25L 30,58.25L 30,49.25L 22,57.25L 18.75,54L 26.75,46L 17.75,46L 21.75,42 Z M 42,54.25L 42,42L 54.2499,42L 58.2499,46L 49.2499,46.0001L 57.2499,54L 53.9999,57.25L 45.9999,49.25L 45.9999,58.25L 42,54.25 Z "
       id="path4140" /></g></svg>