<?xml version="1.0" encoding="UTF-8" standalone="no"?>
<svg
   xmlns:dc="http://purl.org/dc/elements/1.1/"
   xmlns:cc="http://creativecommons.org/ns#"
   xmlns:rdf="http://www.w3.org/1999/02/22-rdf-syntax-ns#"
   xmlns:svg="http://www.w3.org/2000/svg"
   xmlns="http://www.w3.org/2000/svg"
   xmlns:sodipodi="http://sodipodi.sourceforge.net/DTD/sodipodi-0.dtd"
   xmlns:inkscape="http://www.inkscape.org/namespaces/inkscape"
   version="1.1"
   width="76"
   height="76"
   viewBox="0 0 76.00 76.00"
   enable-background="new 0 0 76.00 76.00"
   xml:space="preserve"
   id="svg2"
   inkscape:version="0.91 r13725"
   sodipodi:docname="appbar.upload.svg"><metadata
     id="metadata10"><rdf:RDF><cc:Work
         rdf:about=""><dc:format>image/svg+xml</dc:format><dc:type
           rdf:resource="http://purl.org/dc/dcmitype/StillImage" /></cc:Work></rdf:RDF></metadata><defs
     id="defs8" /><sodipodi:namedview
     pagecolor="#ffffff"
     bordercolor="#666666"
     borderopacity="1"
     objecttolerance="10"
     gridtolerance="10"
     guidetolerance="10"
     inkscape:pageopacity="0"
     inkscape:pageshadow="2"
     inkscape:window-width="968"
     inkscape:window-height="752"
     id="namedview6"
     showgrid="false"
     inkscape:zoom="3.1052632"
     inkscape:cx="38"
     inkscape:cy="38"
     inkscape:window-x="1230"
     inkscape:window-y="238"
     inkscape:window-maximized="0"
     inkscape:current-layer="layer3" /><g
     inkscape:groupmode="layer"
     id="layer1"
     inkscape:label="active"
     style="display:none"><path
       style="fill:#000000;fill-opacity:1;stroke-width:0.2;stroke-linejoin:round"
       d="m 25.3333,23.75 25.3334,0 0,-4.75 -25.3334,0 0,4.75 z m 9.5,36.4167 6.3334,0 0,-20.5834 7.9166,9.5 0,-9.5 L 38,26.9167 26.9167,39.5833 l 0,9.5 7.9166,-9.5 0,20.5834 z"
       id="path4"
       inkscape:connector-curvature="0" /></g><g
     inkscape:groupmode="layer"
     id="layer2"
     inkscape:label="inactive"
     style="display:none"><path
       id="path4141"
       d="m 25.3333,23.75 25.3334,0 0,-4.75 -25.3334,0 0,4.75 z m 9.5,36.4167 6.3334,0 0,-20.5834 7.9166,9.5 0,-9.5 L 38,26.9167 26.9167,39.5833 l 0,9.5 7.9166,-9.5 0,20.5834 z"
       style="fill:#9b9b9b;fill-opacity:1;stroke-width:0.2;stroke-linejoin:round"
       inkscape:connector-curvature="0" /></g><g
     inkscape:groupmode="layer"
     id="layer3"
     inkscape:label="pressed"><path
       style="fill:#ffffff;fill-opacity:1"
       fill="#000000"
       fill-opacity="1"
       stroke-width="0.2"
       stroke-linejoin="round"
       d="M 25.3333,23.75L 50.6667,23.75L 50.6667,19L 25.3333,19L 25.3333,23.75 Z M 34.8333,60.1667L 41.1667,60.1667L 41.1667,39.5833L 49.0833,49.0833L 49.0833,39.5833L 38,26.9167L 26.9167,39.5833L 26.9167,49.0833L 34.8333,39.5833L 34.8333,60.1667 Z "
       id="path4145" /></g></svg>