<?xml version="1.0" encoding="UTF-8" standalone="no"?>
<svg
   xmlns:dc="http://purl.org/dc/elements/1.1/"
   xmlns:cc="http://creativecommons.org/ns#"
   xmlns:rdf="http://www.w3.org/1999/02/22-rdf-syntax-ns#"
   xmlns:svg="http://www.w3.org/2000/svg"
   xmlns="http://www.w3.org/2000/svg"
   xmlns:sodipodi="http://sodipodi.sourceforge.net/DTD/sodipodi-0.dtd"
   xmlns:inkscape="http://www.inkscape.org/namespaces/inkscape"
   version="1.1"
   width="76"
   height="76"
   viewBox="0 0 76.00 76.00"
   enable-background="new 0 0 76.00 76.00"
   xml:space="preserve"
   id="svg2"
   inkscape:version="0.91 r13725"
   sodipodi:docname="appbar.settings.svg"><metadata
     id="metadata10"><rdf:RDF><cc:Work
         rdf:about=""><dc:format>image/svg+xml</dc:format><dc:type
           rdf:resource="http://purl.org/dc/dcmitype/StillImage" /></cc:Work></rdf:RDF></metadata><defs
     id="defs8" /><sodipodi:namedview
     pagecolor="#ffffff"
     bordercolor="#666666"
     borderopacity="1"
     objecttolerance="10"
     gridtolerance="10"
     guidetolerance="10"
     inkscape:pageopacity="0"
     inkscape:pageshadow="2"
     inkscape:window-width="1074"
     inkscape:window-height="849"
     id="namedview6"
     showgrid="false"
     inkscape:zoom="3.1052632"
     inkscape:cx="38"
     inkscape:cy="38"
     inkscape:window-x="771"
     inkscape:window-y="113"
     inkscape:window-maximized="0"
     inkscape:current-layer="layer3" /><g
     inkscape:groupmode="layer"
     id="layer1"
     inkscape:label="active"
     style="display:none"><path
       style="fill:#000000;fill-opacity:1;stroke-linejoin:round"
       d="m 38,23.5 c 0.8643,0 1.7109,0.0756 2.5337,0.2206 l 2.0938,-5.1825 5.5626,2.2489 -2.0937,5.1822 c 1.5509,1.0457 2.8887,2.3835 3.9344,3.9344 l 5.1822,-2.0937 2.2489,5.5626 -5.1825,2.0939 C 52.4244,36.2891 52.5,37.1357 52.5,38 c 0,0.8643 -0.0756,1.7109 -0.2206,2.5337 l 5.1825,2.0938 -2.2489,5.5626 -5.1822,-2.0937 c -0.9513,1.4109 -2.1443,2.6454 -3.5196,3.6441 l 2.2732,5.1057 -5.4803,2.4429 -2.2734,-5.1063 C 40.0533,52.3906 39.0394,52.5 38,52.5 c -0.8643,0 -1.7109,-0.0756 -2.5336,-0.2206 l -2.0939,5.1826 -5.5626,-2.249 2.0937,-5.1821 c -1.5509,-1.0458 -2.8887,-2.3836 -3.9345,-3.9345 l -5.1821,2.0937 -2.249,-5.5626 5.1826,-2.0939 C 23.5756,39.7109 23.5,38.8643 23.5,38 c 0,-0.8643 0.0756,-1.7109 0.2206,-2.5336 l -5.1826,-2.0939 2.249,-5.5626 5.1821,2.0937 c 0.9514,-1.4109 2.1444,-2.6454 3.5198,-3.6442 l -2.2732,-5.1057 5.4802,-2.4428 2.2735,5.1063 C 35.9468,23.6094 36.9606,23.5 38,23.5 Z m 0,4.5 c -5.5229,0 -10,4.4772 -10,10 0,5.5229 4.4771,10 10,10 5.5228,0 10,-4.4771 10,-10 0,-5.5228 -4.4772,-10 -10,-10 z"
       id="path4"
       inkscape:connector-curvature="0" /></g><g
     inkscape:groupmode="layer"
     id="layer2"
     inkscape:label="inactive"
     style="display:none"><path
       id="path4160"
       d="m 38,23.5 c 0.8643,0 1.7109,0.0756 2.5337,0.2206 l 2.0938,-5.1825 5.5626,2.2489 -2.0937,5.1822 c 1.5509,1.0457 2.8887,2.3835 3.9344,3.9344 l 5.1822,-2.0937 2.2489,5.5626 -5.1825,2.0939 C 52.4244,36.2891 52.5,37.1357 52.5,38 c 0,0.8643 -0.0756,1.7109 -0.2206,2.5337 l 5.1825,2.0938 -2.2489,5.5626 -5.1822,-2.0937 c -0.9513,1.4109 -2.1443,2.6454 -3.5196,3.6441 l 2.2732,5.1057 -5.4803,2.4429 -2.2734,-5.1063 C 40.0533,52.3906 39.0394,52.5 38,52.5 c -0.8643,0 -1.7109,-0.0756 -2.5336,-0.2206 l -2.0939,5.1826 -5.5626,-2.249 2.0937,-5.1821 c -1.5509,-1.0458 -2.8887,-2.3836 -3.9345,-3.9345 l -5.1821,2.0937 -2.249,-5.5626 5.1826,-2.0939 C 23.5756,39.7109 23.5,38.8643 23.5,38 c 0,-0.8643 0.0756,-1.7109 0.2206,-2.5336 l -5.1826,-2.0939 2.249,-5.5626 5.1821,2.0937 c 0.9514,-1.4109 2.1444,-2.6454 3.5198,-3.6442 l -2.2732,-5.1057 5.4802,-2.4428 2.2735,5.1063 C 35.9468,23.6094 36.9606,23.5 38,23.5 Z m 0,4.5 c -5.5229,0 -10,4.4772 -10,10 0,5.5229 4.4771,10 10,10 5.5228,0 10,-4.4771 10,-10 0,-5.5228 -4.4772,-10 -10,-10 z"
       style="fill:#9b9b9b;fill-opacity:1;stroke-linejoin:round"
       inkscape:connector-curvature="0" /></g><g
     inkscape:groupmode="layer"
     id="layer3"
     inkscape:label="pressed"><path
       inkscape:connector-curvature="0"
       style="display:inline;fill:#ffffff;fill-opacity:1;stroke-linejoin:round"
       d="m 38,23.5 c 0.8643,0 1.7109,0.0756 2.5337,0.2206 l 2.0938,-5.1825 5.5626,2.2489 -2.0937,5.1822 c 1.5509,1.0457 2.8887,2.3835 3.9344,3.9344 l 5.1822,-2.0937 2.2489,5.5626 -5.1825,2.0939 C 52.4244,36.2891 52.5,37.1357 52.5,38 c 0,0.8643 -0.0756,1.7109 -0.2206,2.5337 l 5.1825,2.0938 -2.2489,5.5626 -5.1822,-2.0937 c -0.9513,1.4109 -2.1443,2.6454 -3.5196,3.6441 l 2.2732,5.1057 -5.4803,2.4429 -2.2734,-5.1063 C 40.0533,52.3906 39.0394,52.5 38,52.5 c -0.8643,0 -1.7109,-0.0756 -2.5336,-0.2206 l -2.0939,5.1826 -5.5626,-2.249 2.0937,-5.1821 c -1.5509,-1.0458 -2.8887,-2.3836 -3.9345,-3.9345 l -5.1821,2.0937 -2.249,-5.5626 5.1826,-2.0939 C 23.5756,39.7109 23.5,38.8643 23.5,38 c 0,-0.8643 0.0756,-1.7109 0.2206,-2.5336 l -5.1826,-2.0939 2.249,-5.5626 5.1821,2.0937 c 0.9514,-1.4109 2.1444,-2.6454 3.5198,-3.6442 l -2.2732,-5.1057 5.4802,-2.4428 2.2735,5.1063 C 35.9468,23.6094 36.9606,23.5 38,23.5 Z m 0,4.5 c -5.5229,0 -10,4.4772 -10,10 0,5.5229 4.4771,10 10,10 5.5228,0 10,-4.4771 10,-10 0,-5.5228 -4.4772,-10 -10,-10 z"
       id="path4164" /></g></svg>