<?xml version="1.0" encoding="UTF-8" standalone="no"?>
<svg
   xmlns:dc="http://purl.org/dc/elements/1.1/"
   xmlns:cc="http://creativecommons.org/ns#"
   xmlns:rdf="http://www.w3.org/1999/02/22-rdf-syntax-ns#"
   xmlns:svg="http://www.w3.org/2000/svg"
   xmlns="http://www.w3.org/2000/svg"
   xmlns:sodipodi="http://sodipodi.sourceforge.net/DTD/sodipodi-0.dtd"
   xmlns:inkscape="http://www.inkscape.org/namespaces/inkscape"
   version="1.1"
   width="76"
   height="76"
   viewBox="0 0 76.00 76.00"
   enable-background="new 0 0 76.00 76.00"
   xml:space="preserve"
   id="svg2"
   inkscape:version="0.91 r13725"
   sodipodi:docname="appbar.dock.window.svg"><metadata
     id="metadata10"><rdf:RDF><cc:Work
         rdf:about=""><dc:format>image/svg+xml</dc:format><dc:type
           rdf:resource="http://purl.org/dc/dcmitype/StillImage" /></cc:Work></rdf:RDF></metadata><defs
     id="defs8" /><sodipodi:namedview
     pagecolor="#ffffff"
     bordercolor="#666666"
     borderopacity="1"
     objecttolerance="10"
     gridtolerance="10"
     guidetolerance="10"
     inkscape:pageopacity="0"
     inkscape:pageshadow="2"
     inkscape:window-width="975"
     inkscape:window-height="579"
     id="namedview6"
     showgrid="false"
     inkscape:zoom="1"
     inkscape:cx="39"
     inkscape:cy="38"
     inkscape:window-x="1071"
     inkscape:window-y="443"
     inkscape:window-maximized="0"
     inkscape:current-layer="layer3" /><g
     inkscape:groupmode="layer"
     id="layer1"
     inkscape:label="active"
     style="display:none"><path
       style="fill:#000000;fill-opacity:1;stroke-width:0.2;stroke-linejoin:round"
       d="m 21,23.3333 23.75,0 -4.75,4.75 -14.25,0 0,22.1667 22.1667,0 0,-14.25 4.75,-4.75 0,23.75 L 21,55 21,23.3333 Z m 20.5417,23.7917 -12.6667,0 0,-12.6667 4.75,-4.75 0,8.7084 L 51.0417,21 55,24.9583 37.5833,42.375 l 8.7084,0 -4.75,4.75 z"
       id="path4"
       inkscape:connector-curvature="0" /></g><g
     inkscape:groupmode="layer"
     id="layer2"
     inkscape:label="inactive"
     style="display:none"><path
       id="path4141"
       d="m 21,23.3333 23.75,0 -4.75,4.75 -14.25,0 0,22.1667 22.1667,0 0,-14.25 4.75,-4.75 0,23.75 L 21,55 21,23.3333 Z m 20.5417,23.7917 -12.6667,0 0,-12.6667 4.75,-4.75 0,8.7084 L 51.0417,21 55,24.9583 37.5833,42.375 l 8.7084,0 -4.75,4.75 z"
       style="fill:#9b9b9b;fill-opacity:1;stroke-width:0.2;stroke-linejoin:round"
       inkscape:connector-curvature="0" /></g><g
     inkscape:groupmode="layer"
     id="layer3"
     inkscape:label="pressed"><path
       style="fill:#ffffff;fill-opacity:1"
       fill="#000000"
       fill-opacity="1"
       stroke-width="0.2"
       stroke-linejoin="round"
       d="m 21,23.3333 23.75,0 -4.75,4.75 -14.25,0 0,22.1667 22.1667,0 0,-14.25 4.75,-4.75 0,23.75 L 21,55 21,23.3333 Z m 20.5417,23.7917 -12.6667,0 0,-12.6667 4.75,-4.75 0,8.7084 L 51.0417,21 55,24.9583 37.5833,42.375 l 8.7084,0 -4.75,4.75 z"
       id="path4145" /></g></svg>