<?xml version="1.0" encoding="UTF-8" standalone="no"?>
<svg
   xmlns:dc="http://purl.org/dc/elements/1.1/"
   xmlns:cc="http://creativecommons.org/ns#"
   xmlns:rdf="http://www.w3.org/1999/02/22-rdf-syntax-ns#"
   xmlns:svg="http://www.w3.org/2000/svg"
   xmlns="http://www.w3.org/2000/svg"
   xmlns:sodipodi="http://sodipodi.sourceforge.net/DTD/sodipodi-0.dtd"
   xmlns:inkscape="http://www.inkscape.org/namespaces/inkscape"
   version="1.1"
   width="76"
   height="76"
   viewBox="0 0 76.00 76.00"
   enable-background="new 0 0 76.00 76.00"
   xml:space="preserve"
   id="svg3394"
   inkscape:version="0.91 r13725"
   sodipodi:docname="appbar.arrow.expand.svg"
   inkscape:export-filename="/Users/amake/Downloads/WindowsIcons-master/WindowsPhone/svg/appbar.arrow.expand@2x.png"
   inkscape:export-xdpi="67.5"
   inkscape:export-ydpi="67.5"><metadata
     id="metadata3402"><rdf:RDF><cc:Work
         rdf:about=""><dc:format>image/svg+xml</dc:format><dc:type
           rdf:resource="http://purl.org/dc/dcmitype/StillImage" /></cc:Work></rdf:RDF></metadata><defs
     id="defs3400" /><sodipodi:namedview
     pagecolor="#ffffff"
     bordercolor="#666666"
     borderopacity="1"
     objecttolerance="10"
     gridtolerance="10"
     guidetolerance="10"
     inkscape:pageopacity="0"
     inkscape:pageshadow="2"
     inkscape:window-width="983"
     inkscape:window-height="770"
     id="namedview3398"
     showgrid="false"
     inkscape:zoom="3.7796053"
     inkscape:cx="43.08095"
     inkscape:cy="35.354221"
     inkscape:window-x="932"
     inkscape:window-y="379"
     inkscape:window-maximized="0"
     inkscape:current-layer="layer3" /><g
     inkscape:groupmode="layer"
     id="layer1"
     inkscape:label="active"
     style="display:none"><path
       style="fill:#000000;fill-opacity:1;stroke-width:0.2;stroke-linejoin:round"
       d="M 30.25,58 18,58 l 0,-12.25 4,-4 0,9 8,-8 3.25,3.25 -8,8 9,0 -4,4 z M 58,45.75 58,58 l -12.25,0 -4,-4 9,0 -8,-8 3.25,-3.25 8,8 0,-9 4,4 z M 45.75,18 58,18 l 0,12.25 -4,4 0,-9 -8,8 -3.25,-3.25 8,-8 -9,0 4,-4 z M 18,30.25 18,18 l 12.25,0 4,4 -9,0 8,8 -3.25,3.25 -8,-8 0,9 -4,-4 z"
       id="path3396"
       inkscape:connector-curvature="0" /></g><g
     inkscape:groupmode="layer"
     id="layer2"
     inkscape:label="inactive"
     style="display:none"><path
       id="path3407"
       d="M 30.25,58 18,58 l 0,-12.25 4,-4 0,9 8,-8 3.25,3.25 -8,8 9,0 -4,4 z M 58,45.75 58,58 l -12.25,0 -4,-4 9,0 -8,-8 3.25,-3.25 8,8 0,-9 4,4 z M 45.75,18 58,18 l 0,12.25 -4,4 0,-9 -8,8 -3.25,-3.25 8,-8 -9,0 4,-4 z M 18,30.25 18,18 l 12.25,0 4,4 -9,0 8,8 -3.25,3.25 -8,-8 0,9 -4,-4 z"
       style="fill:#9b9b9b;fill-opacity:1;stroke-width:0.2;stroke-linejoin:round"
       inkscape:connector-curvature="0" /></g><g
     inkscape:groupmode="layer"
     id="layer3"
     inkscape:label="pressed"><path
       style="fill:#ffffff;fill-opacity:1"
       fill="#000000"
       fill-opacity="1"
       stroke-width="0.2"
       stroke-linejoin="round"
       d="M 30.25,58L 18,58L 18,45.75L 22,41.75L 22,50.75L 30,42.75L 33.25,46L 25.25,54L 34.25,54L 30.25,58 Z M 58,45.75L 58,58L 45.75,58L 41.75,54L 50.75,54L 42.75,46L 46,42.75L 54,50.75L 54,41.75L 58,45.75 Z M 45.75,18L 58,18L 58,30.25L 54,34.25L 54,25.25L 46,33.25L 42.75,30L 50.75,22L 41.75,22L 45.75,18 Z M 18,30.25L 18,18L 30.25,18L 34.25,22L 25.25,22L 33.25,30L 30,33.25L 22,25.25L 22,34.25L 18,30.25 Z "
       id="path4211" /></g></svg>