<?xml version="1.0" encoding="UTF-8" standalone="no"?>
<svg
   xmlns:dc="http://purl.org/dc/elements/1.1/"
   xmlns:cc="http://creativecommons.org/ns#"
   xmlns:rdf="http://www.w3.org/1999/02/22-rdf-syntax-ns#"
   xmlns:svg="http://www.w3.org/2000/svg"
   xmlns="http://www.w3.org/2000/svg"
   xmlns:sodipodi="http://sodipodi.sourceforge.net/DTD/sodipodi-0.dtd"
   xmlns:inkscape="http://www.inkscape.org/namespaces/inkscape"
   version="1.1"
   width="76"
   height="76"
   viewBox="0 0 76.00 76.00"
   enable-background="new 0 0 76.00 76.00"
   xml:space="preserve"
   id="svg2"
   inkscape:version="0.91 r13725"
   sodipodi:docname="appbar.window.maximize.svg"><metadata
     id="metadata10"><rdf:RDF><cc:Work
         rdf:about=""><dc:format>image/svg+xml</dc:format><dc:type
           rdf:resource="http://purl.org/dc/dcmitype/StillImage" /></cc:Work></rdf:RDF></metadata><defs
     id="defs8" /><sodipodi:namedview
     pagecolor="#ffffff"
     bordercolor="#666666"
     borderopacity="1"
     objecttolerance="10"
     gridtolerance="10"
     guidetolerance="10"
     inkscape:pageopacity="0"
     inkscape:pageshadow="2"
     inkscape:window-width="939"
     inkscape:window-height="650"
     id="namedview6"
     showgrid="false"
     inkscape:zoom="3.1052632"
     inkscape:cx="37.677966"
     inkscape:cy="38"
     inkscape:window-x="796"
     inkscape:window-y="375"
     inkscape:window-maximized="0"
     inkscape:current-layer="layer1" /><g
     inkscape:groupmode="layer"
     id="layer1"
     inkscape:label="active"
     style="display:none"><path
       style="fill:#000000;fill-opacity:1;stroke-width:0.2;stroke-linejoin:round"
       d="m 43,48 3,0 0,9 -27,0 0,-23 13,0 0,6 -10,0 0,14 21,0 0,-6 z m -22,-29 36,0 0,31 -8,0 0,-4 4,0 0,-19 -28,0 0,5 -4,0 0,-13 z m 16.75,11 12.25,0 0,12.25 -4,4 0,-9 -8,8 -3.25,-3.25 8,-8 -9,0 4,-4 z"
       id="path4"
       inkscape:connector-curvature="0" /></g><g
     inkscape:groupmode="layer"
     id="layer2"
     inkscape:label="inactive"><path
       id="path3340"
       d="M 43,48L 46,48L 46,57L 19,57L 19,34L 32,34L 32,40L 22,40L 22,54L 43,54L 43,48 Z M 21,19L 57,19L 57,50L 49,50L 49,46L 53,46L 53,27L 25,27L 25,32L 21,32L 21,19 Z M 37.75,30L 50,30L 50,42.25L 46,46.25L 46,37.25L 38,45.25L 34.75,42L 42.75,34L 33.75,34L 37.75,30 Z "
       stroke-linejoin="round"
       stroke-width="0.2"
       fill-opacity="1"
       fill="#000000"
       style="fill:#9b9b9b;fill-opacity:1" /></g></svg>