<?xml version="1.0" encoding="UTF-8" standalone="no"?>
<svg
   xmlns:dc="http://purl.org/dc/elements/1.1/"
   xmlns:cc="http://creativecommons.org/ns#"
   xmlns:rdf="http://www.w3.org/1999/02/22-rdf-syntax-ns#"
   xmlns:svg="http://www.w3.org/2000/svg"
   xmlns="http://www.w3.org/2000/svg"
   xmlns:sodipodi="http://sodipodi.sourceforge.net/DTD/sodipodi-0.dtd"
   xmlns:inkscape="http://www.inkscape.org/namespaces/inkscape"
   version="1.1"
   width="76"
   height="76"
   viewBox="0 0 76.00 76.00"
   enable-background="new 0 0 76.00 76.00"
   xml:space="preserve"
   id="svg2"
   inkscape:version="0.91 r13725"
   sodipodi:docname="appbar.window.restore.svg"><metadata
     id="metadata10"><rdf:RDF><cc:Work
         rdf:about=""><dc:format>image/svg+xml</dc:format><dc:type
           rdf:resource="http://purl.org/dc/dcmitype/StillImage" /></cc:Work></rdf:RDF></metadata><defs
     id="defs8" /><sodipodi:namedview
     pagecolor="#ffffff"
     bordercolor="#666666"
     borderopacity="1"
     objecttolerance="10"
     gridtolerance="10"
     guidetolerance="10"
     inkscape:pageopacity="0"
     inkscape:pageshadow="2"
     inkscape:window-width="733"
     inkscape:window-height="480"
     id="namedview6"
     showgrid="false"
     inkscape:zoom="3.1052632"
     inkscape:cx="38"
     inkscape:cy="38"
     inkscape:window-x="946"
     inkscape:window-y="530"
     inkscape:window-maximized="0"
     inkscape:current-layer="layer1" /><g
     inkscape:groupmode="layer"
     id="layer1"
     inkscape:label="active"
     style="display:inline"><path
       style="fill:#000000;fill-opacity:1;stroke-width:0.2;stroke-linejoin:round"
       d="m 54,54 0,-14 -21,0 0,14 21,0 z m 3,-20 0,23 -27,0 0,-23 27,0 z m -14,-9 -21,0 0,14 5,0 0,3 -8,0 0,-23 27,0 0,12 -3,0 0,-6 z"
       id="path4"
       inkscape:connector-curvature="0" /></g><g
     inkscape:groupmode="layer"
     id="layer2"
     inkscape:label="inactive"
     style="display:none"><path
       id="path3341"
       d="m 54,54 0,-14 -21,0 0,14 21,0 z m 3,-20 0,23 -27,0 0,-23 27,0 z m -14,-9 -21,0 0,14 5,0 0,3 -8,0 0,-23 27,0 0,12 -3,0 0,-6 z"
       style="fill:#9b9b9b;fill-opacity:1;stroke-width:0.2;stroke-linejoin:round"
       inkscape:connector-curvature="0" /></g><g
     inkscape:groupmode="layer"
     id="layer3"
     inkscape:label="pressed"
     style="display:none"><path
       style="fill:#ffffff;fill-opacity:1;stroke-width:0.2;stroke-linejoin:round"
       d="m 54,54 0,-14 -21,0 0,14 21,0 z m 3,-20 0,23 -27,0 0,-23 27,0 z m -14,-9 -21,0 0,14 5,0 0,3 -8,0 0,-23 27,0 0,12 -3,0 0,-6 z"
       id="path4145"
       inkscape:connector-curvature="0" /></g></svg>